<svg viewBox="0 0 163 30" xmlns="http://www.w3.org/2000/svg"><path d="M111.816 13.636c-1.534-1.547-3.58-2.044-5.227-2.044-5.114.055-7.898 4.584-7.898 8.892 0 5.743 4.034 8.891 7.784 8.891 3.125 0 4.716-1.546 5.397-2.264v1.877h5.284V3.75h-5.34v9.886zm-3.75 10.934c-2.33 0-4.09-1.767-4.09-4.142 0-2.374 1.76-4.142 4.09-4.142 2.272 0 4.034 1.768 4.034 4.142 0 2.32-1.762 4.142-4.034 4.142zm-53.141-3.694c-1.132-.5-2.376-.055-2.885 1.223-1.188 2.778-5.205 4.556-7.75 2.722 2.432-1.389 4.751-3.278 6.109-6.167 1.301-2.946.17-9.28-5.77-8.28-3.282.556-8.43 4.612-7.072 12.002-4.3.89-3.564-5.167-1.697-13.558.509-2.39.792-4.223-1.019-5.612-1.584-1.222-3.338-.333-4.639.778-2.828 2.5-6.45 7.001-8.316 9.446.792-4.667 2.093-10.613 1.131-12.169-.961-1.556-2.715-1.611-4.356-.5-3.677 2.89-10.183 11.78-10.183 11.78s.283-1 .396-2.167c.113-1.111-.453-2.278-1.754-2.556-1.188-.278-2.659.333-2.942 1.667-1.47 6.946-2.659 10.558-4.13 17.56-.226 1.222.34 2.61 1.698 2.889.622.11 1.3.11 1.867-.223a2.883 2.883 0 0 0 1.018-1.222C7.29 21.82 13.852 12.652 18.265 7.762c.113-.11.34-.055.283.167-.566 2.89-1.98 10.002-2.037 11.002-.056 1 .057 2.223 1.358 2.723 1.301.445 2.32.222 3.79-1 1.358-1.278 6.62-7.613 8.317-9.669.17-.166.396-.166.283.223-3.508 11.39.735 17.78 9.165 15.503 5.827 6.445 14.313 2.167 16.35-2.945.509-1.112.282-2.39-.85-2.89zm-9.222-6.112c1.584.778.51 4.556-3.79 6.446-.226-3.89 2.206-7.224 3.79-6.446zM120.34 12.5h5.73v16.25h-5.73zm-29.66-.625c-2.6 0-3.786.775-5.142 2.326v-1.938h-5.311V29.32h5.367v-9.415c0-2.215 1.074-3.544 2.882-3.544s2.825 1.163 2.825 3.323v9.691h5.48V18.244c-.056-3.932-2.373-6.369-6.102-6.369zm-19.176 8.573c0 2.37-1.4 4.022-3.693 4.022-2.07 0-3.637-1.432-3.637-4.022V3.75h-5.596v16.532c0 6.227 3.917 9.093 9.233 9.093 6.994 0 9.232-4.629 9.232-9.093V3.75h-5.54v16.698z"/><ellipse cx="122.887" cy="6.875" rx="3.184" ry="3.125"/><path d="M137.241 11.875c-5 0-9.26 3.67-9.26 9.007 0 5.893 4.43 9.118 9.203 9.118 5.284 0 7.727-3.002 8.806-5.449h-5.738c-.568.612-1.477 1.224-3.011 1.224-2.045 0-3.863-1.224-4.261-3.28h13.465v-1.446c.057-5.393-3.92-9.174-9.204-9.174zm-4.034 6.95c.796-2.057 2.557-2.78 4.148-2.78 2.272 0 3.522 1.167 4.033 2.78h-8.18zm21.017-.795a.797.797 0 0 1-.503-.734c0-.622.448-1.356 1.789-1.356 1.565 0 1.845.904 1.9 1.356h5.31c-.111-1.638-.782-2.937-1.956-3.896-1.285-1.017-3.074-1.525-5.254-1.525-2.906 0-5.366.96-6.54 3.331-.335.678-.447 1.356-.447 2.146 0 .96.168 1.75.503 2.315.671 1.13 1.565 1.863 3.074 2.428 2.851.96 5.59.734 5.59 2.146 0 1.072-.894 1.411-1.956 1.411-.615 0-1.621-.113-1.9-1.016h-5.479c.392 3.331 2.348 4.348 3.969 4.912.95.283 2.068.452 3.41.452 1.23 0 2.291-.17 3.186-.508 1.844-.678 4.08-2.202 4.08-5.42 0-.96-.168-1.695-.447-2.316-.447-1.016-1.398-1.863-2.627-2.315-1.51-.508-4.416-.847-5.702-1.411z"/></svg>